# xmcd
#
# Track frame offsets: 
#        150
#        19476
#        35560
#        57888
#        73818
#        95690
#        110865
#        126813
#        143457
#        159697
#        177483
#        191456
#        212368
#
# Disc length: 3058 seconds
#
# Revision: 0
# Processed by: cddbd v1.5.1PL2 Copyright (c) Steve Scherf et al.
# Submitted via: ExactAudioCopy v0.95b4
#
DISCID=c00bf00d
DTITLE=Dayton Waters - Leather and Gasoline: Ruffcut and Unrefined
DYEAR=2001
DGENRE=Blues
TTITLE0=BLEED
TTITLE1=RUNNIN' WITH THE WIND
TTITLE2=WHICH WAY DO I TURN
TTITLE3=HOMEBOUND
TTITLE4=EL CABILDO
TTITLE5=SO IT SEEMS
TTITLE6=SPECIAL FRIENDS
TTITLE7=CAN'T GET HIGH ENOUGH
TTITLE8=WHAT D'YA SAY
TTITLE9=THE PROPHET
TTITLE10=HALF OF WHAT WE HAD
TTITLE11=DRIVE ON
TTITLE12=THIS SIDE OF ME
EXTD=
EXTT0=
EXTT1=
EXTT2=
EXTT3=
EXTT4=
EXTT5=
EXTT6=
EXTT7=
EXTT8=
EXTT9=
EXTT10=
EXTT11=
EXTT12=
PLAYORDER=
